<svg id="visual" viewBox="0 0 960 300" width="960" height="300" xmlns="http://www.w3.org/2000/svg" xmlns:xlink="http://www.w3.org/1999/xlink" version="1.1"><rect x="0" y="0" width="960" height="300" fill="#001122"></rect><path d="M0 217L22.8 210.8C45.7 204.7 91.3 192.3 137 190.2C182.7 188 228.3 196 274 200.5C319.7 205 365.3 206 411.2 201.8C457 197.7 503 188.3 548.8 190.5C594.7 192.7 640.3 206.3 686 208.2C731.7 210 777.3 200 823 195.8C868.7 191.7 914.3 193.3 937.2 194.2L960 195L960 301L937.2 301C914.3 301 868.7 301 823 301C777.3 301 731.7 301 686 301C640.3 301 594.7 301 548.8 301C503 301 457 301 411.2 301C365.3 301 319.7 301 274 301C228.3 301 182.7 301 137 301C91.3 301 45.7 301 22.8 301L0 301Z" fill="#c62368"></path><path d="M0 234L22.8 233C45.7 232 91.3 230 137 226.5C182.7 223 228.3 218 274 216.2C319.7 214.3 365.3 215.7 411.2 214.7C457 213.7 503 210.3 548.8 212.7C594.7 215 640.3 223 686 226.5C731.7 230 777.3 229 823 227.7C868.7 226.3 914.3 224.7 937.2 223.8L960 223L960 301L937.2 301C914.3 301 868.7 301 823 301C777.3 301 731.7 301 686 301C640.3 301 594.7 301 548.8 301C503 301 457 301 411.2 301C365.3 301 319.7 301 274 301C228.3 301 182.7 301 137 301C91.3 301 45.7 301 22.8 301L0 301Z" fill="#d53867"></path><path d="M0 255L22.8 250.5C45.7 246 91.3 237 137 235.3C182.7 233.7 228.3 239.3 274 241.3C319.7 243.3 365.3 241.7 411.2 242.8C457 244 503 248 548.8 249.5C594.7 251 640.3 250 686 248.8C731.7 247.7 777.3 246.3 823 242.5C868.7 238.7 914.3 232.3 937.2 229.2L960 226L960 301L937.2 301C914.3 301 868.7 301 823 301C777.3 301 731.7 301 686 301C640.3 301 594.7 301 548.8 301C503 301 457 301 411.2 301C365.3 301 319.7 301 274 301C228.3 301 182.7 301 137 301C91.3 301 45.7 301 22.8 301L0 301Z" fill="#e34c67"></path><path d="M0 252L22.8 251.2C45.7 250.3 91.3 248.7 137 247.8C182.7 247 228.3 247 274 250.2C319.7 253.3 365.3 259.7 411.2 262C457 264.3 503 262.7 548.8 259.7C594.7 256.7 640.3 252.3 686 250.8C731.7 249.3 777.3 250.7 823 249.5C868.7 248.3 914.3 244.7 937.2 242.8L960 241L960 301L937.2 301C914.3 301 868.7 301 823 301C777.3 301 731.7 301 686 301C640.3 301 594.7 301 548.8 301C503 301 457 301 411.2 301C365.3 301 319.7 301 274 301C228.3 301 182.7 301 137 301C91.3 301 45.7 301 22.8 301L0 301Z" fill="#ef5f67"></path><path d="M0 270L22.8 270.2C45.7 270.3 91.3 270.7 137 270.2C182.7 269.7 228.3 268.3 274 269.5C319.7 270.7 365.3 274.3 411.2 276.7C457 279 503 280 548.8 277.3C594.7 274.7 640.3 268.3 686 269.2C731.7 270 777.3 278 823 278.7C868.7 279.3 914.3 272.7 937.2 269.3L960 266L960 301L937.2 301C914.3 301 868.7 301 823 301C777.3 301 731.7 301 686 301C640.3 301 594.7 301 548.8 301C503 301 457 301 411.2 301C365.3 301 319.7 301 274 301C228.3 301 182.7 301 137 301C91.3 301 45.7 301 22.8 301L0 301Z" fill="#fa7268"></path></svg>