<svg id="visual" viewBox="0 0 900 300" width="900" height="300" xmlns="http://www.w3.org/2000/svg" xmlns:xlink="http://www.w3.org/1999/xlink" version="1.1"><rect x="0" y="0" width="900" height="300" fill="#001122"></rect><path d="M0 167L21.5 164.7C43 162.3 86 157.7 128.8 163.2C171.7 168.7 214.3 184.3 257.2 189.8C300 195.3 343 190.7 385.8 178.8C428.7 167 471.3 148 514.2 141.2C557 134.3 600 139.7 642.8 150.2C685.7 160.7 728.3 176.3 771.2 184C814 191.7 857 191.3 878.5 191.2L900 191L900 301L878.5 301C857 301 814 301 771.2 301C728.3 301 685.7 301 642.8 301C600 301 557 301 514.2 301C471.3 301 428.7 301 385.8 301C343 301 300 301 257.2 301C214.3 301 171.7 301 128.8 301C86 301 43 301 21.5 301L0 301Z" fill="#c62368"></path><path d="M0 215L21.5 216.3C43 217.7 86 220.3 128.8 223.8C171.7 227.3 214.3 231.7 257.2 225.3C300 219 343 202 385.8 196.5C428.7 191 471.3 197 514.2 196.3C557 195.7 600 188.3 642.8 191C685.7 193.7 728.3 206.3 771.2 208.2C814 210 857 201 878.5 196.5L900 192L900 301L878.5 301C857 301 814 301 771.2 301C728.3 301 685.7 301 642.8 301C600 301 557 301 514.2 301C471.3 301 428.7 301 385.8 301C343 301 300 301 257.2 301C214.3 301 171.7 301 128.8 301C86 301 43 301 21.5 301L0 301Z" fill="#e34c67"></path><path d="M0 262L21.5 260C43 258 86 254 128.8 247.3C171.7 240.7 214.3 231.3 257.2 231.7C300 232 343 242 385.8 247C428.7 252 471.3 252 514.2 254.2C557 256.3 600 260.7 642.8 261.8C685.7 263 728.3 261 771.2 260.3C814 259.7 857 260.3 878.5 260.7L900 261L900 301L878.5 301C857 301 814 301 771.2 301C728.3 301 685.7 301 642.8 301C600 301 557 301 514.2 301C471.3 301 428.7 301 385.8 301C343 301 300 301 257.2 301C214.3 301 171.7 301 128.8 301C86 301 43 301 21.5 301L0 301Z" fill="#fa7268"></path></svg>